<svg xmlns="http://www.w3.org/2000/svg" width="32" height="32" viewBox="0 0 32 32">
<rect width="32" height="32" fill="#0A0A0A"/>
<rect x="7" y="4" width="3" height="3" fill="#FFE000"/><rect x="22" y="4" width="3" height="3" fill="#FFE000"/><rect x="10" y="7" width="3" height="3" fill="#FFE000"/><rect x="19" y="7" width="3" height="3" fill="#FFE000"/><rect x="7" y="10" width="3" height="3" fill="#FFE000"/><rect x="10" y="10" width="3" height="3" fill="#FFE000"/><rect x="13" y="10" width="3" height="3" fill="#FFE000"/><rect x="16" y="10" width="3" height="3" fill="#FFE000"/><rect x="19" y="10" width="3" height="3" fill="#FFE000"/><rect x="22" y="10" width="3" height="3" fill="#FFE000"/><rect x="4" y="13" width="3" height="3" fill="#FFE000"/><rect x="7" y="13" width="3" height="3" fill="#FFE000"/><rect x="13" y="13" width="3" height="3" fill="#FFE000"/><rect x="16" y="13" width="3" height="3" fill="#FFE000"/><rect x="22" y="13" width="3" height="3" fill="#FFE000"/><rect x="25" y="13" width="3" height="3" fill="#FFE000"/><rect x="1" y="16" width="3" height="3" fill="#FFE000"/><rect x="4" y="16" width="3" height="3" fill="#FFE000"/><rect x="7" y="16" width="3" height="3" fill="#FFE000"/><rect x="10" y="16" width="3" height="3" fill="#FFE000"/><rect x="13" y="16" width="3" height="3" fill="#FFE000"/><rect x="16" y="16" width="3" height="3" fill="#FFE000"/><rect x="19" y="16" width="3" height="3" fill="#FFE000"/><rect x="22" y="16" width="3" height="3" fill="#FFE000"/><rect x="25" y="16" width="3" height="3" fill="#FFE000"/><rect x="28" y="16" width="3" height="3" fill="#FFE000"/><rect x="1" y="19" width="3" height="3" fill="#FFE000"/><rect x="7" y="19" width="3" height="3" fill="#FFE000"/><rect x="10" y="19" width="3" height="3" fill="#FFE000"/><rect x="13" y="19" width="3" height="3" fill="#FFE000"/><rect x="16" y="19" width="3" height="3" fill="#FFE000"/><rect x="19" y="19" width="3" height="3" fill="#FFE000"/><rect x="22" y="19" width="3" height="3" fill="#FFE000"/><rect x="28" y="19" width="3" height="3" fill="#FFE000"/><rect x="1" y="22" width="3" height="3" fill="#FFE000"/><rect x="13" y="22" width="3" height="3" fill="#FFE000"/><rect x="16" y="22" width="3" height="3" fill="#FFE000"/><rect x="28" y="22" width="3" height="3" fill="#FFE000"/><rect x="4" y="25" width="3" height="3" fill="#FFE000"/><rect x="7" y="25" width="3" height="3" fill="#FFE000"/><rect x="10" y="25" width="3" height="3" fill="#FFE000"/><rect x="19" y="25" width="3" height="3" fill="#FFE000"/><rect x="22" y="25" width="3" height="3" fill="#FFE000"/><rect x="25" y="25" width="3" height="3" fill="#FFE000"/>
</svg>
